HIERARCHY
ROOT Hips
{
    OFFSET 0.000000 0.000000 0.000000
    CHANNELS 6 Xposition Yposition Zposition Zrotation Xrotation Yrotation
    JOINT Spine
    {
        OFFSET -0.000000 7.795402 0.000000
        CHANNELS 3 Zrotation Xrotation Yrotation
        JOINT Spine1
        {
            OFFSET -0.000000 20.648252 0.000000
            CHANNELS 3 Zrotation Xrotation Yrotation
            JOINT Neck
            {
                OFFSET -0.000000 20.563454 1.869405
                CHANNELS 3 Zrotation Xrotation Yrotation
                JOINT Head
                {
                    OFFSET -0.000000 13.309221 -1.901317
                    CHANNELS 3 Zrotation Xrotation Yrotation
                    End Site
                    {
                        OFFSET -0.000000 23.766466 0.000000
                    }
                }
            }
            JOINT LeftShoulder
            {
                OFFSET 3.798743 19.114376 -0.113875
                CHANNELS 3 Zrotation Xrotation Yrotation
                JOINT LeftArm
                {
                    OFFSET 9.772051 0.000000 0.000000
                    CHANNELS 3 Zrotation Xrotation Yrotation
                    JOINT LeftForeArm
                    {
                        OFFSET 36.651028 0.000000 0.000000
                        CHANNELS 3 Zrotation Xrotation Yrotation
                        JOINT LeftHand
                        {
                            OFFSET 25.694054 0.000000 0.000000
                            CHANNELS 3 Zrotation Xrotation Yrotation
                            End Site
                            {
                                OFFSET 14.259881 0.000000 0.000000
                            }
                        }
                    }
                }
            }
            JOINT RightShoulder
            {
                OFFSET -3.780769 19.114376 -0.113875
                CHANNELS 3 Zrotation Xrotation Yrotation
                JOINT RightArm
                {
                    OFFSET -9.772051 0.000000 0.000000
                    CHANNELS 3 Zrotation Xrotation Yrotation
                    JOINT RightForeArm
                    {
                        OFFSET -36.651028 0.000000 0.000000
                        CHANNELS 3 Zrotation Xrotation Yrotation
                        JOINT RightHand
                        {
                            OFFSET -25.694054 0.000000 0.000000
                            CHANNELS 3 Zrotation Xrotation Yrotation
                            End Site
                            {
                                OFFSET -14.259881 0.000000 0.000000
                            }
                        }
                    }
                }
            }
        }
    }
    JOINT LeftUpLeg
    {
        OFFSET 9.506587 0.000000 0.000000
        CHANNELS 3 Zrotation Xrotation Yrotation
        JOINT LeftLeg
        {
            OFFSET -0.000000 -42.556026 0.000000
            CHANNELS 3 Zrotation Xrotation Yrotation
            JOINT LeftFoot
            {
                OFFSET -0.000000 -42.739758 0.000000
                CHANNELS 3 Zrotation Xrotation Yrotation
                JOINT LeftToeBase
                {
                    OFFSET -0.000000 -6.179281 14.259881
                    CHANNELS 3 Zrotation Xrotation Yrotation
                    End Site
                    {
                        OFFSET -0.000000 0.000000 3.802635
                    }
                }
            }
        }
    }
    JOINT RightUpLeg
    {
        OFFSET -9.506587 0.000000 0.000000
        CHANNELS 3 Zrotation Xrotation Yrotation
        JOINT RightLeg
        {
            OFFSET -0.000000 -42.556026 0.000000
            CHANNELS 3 Zrotation Xrotation Yrotation
            JOINT RightFoot
            {
                OFFSET -0.000000 -42.739758 0.000000
                CHANNELS 3 Zrotation Xrotation Yrotation
                JOINT RightToeBase
                {
                    OFFSET -0.000000 -6.179281 14.259881
                    CHANNELS 3 Zrotation Xrotation Yrotation
                    End Site
                    {
                        OFFSET -0.000000 0.000000 3.802635
                    }
                }
            }
        }
    }
}
MOTION
Frames:    7
Frame Time:    0.008333
-9.938148    92.360130    25.869497    0.592158    0.063918    88.862877    0.507512    -6.381891    -2.236152    -2.799859    -2.819787    -2.333399    8.997107    21.839277    0.183210    2.801365    -7.025169    1.241117    11.417407    -1.012480    -1.501053    -6.480842    1.389659    -34.457096    65.869148    -25.351934    -46.019218    61.163441    13.612003    12.798200    2.905320    16.591995    13.368885    50.043293    54.341454    12.488404    -0.572263    -12.090539    23.688278    10.087515    -11.815300    1.827957    7.078911    5.416795    -0.997140    -2.155548    0.856715    1.054745    -4.611592    -5.783456    21.960257    0.000000    0.000000    0.000000    -5.400305    1.640304    3.329413    4.418797    6.564797    -0.945796    1.183968    -10.097745    -18.212994    0.000000    0.000000    0.000000    
-9.967501    92.369812    25.848949    0.566954    0.083896    88.904671    0.586018    -6.343259    -2.295946    -3.053115    -2.847852    -2.404351    9.279464    21.814323    0.336764    2.610220    -6.915845    1.372611    11.325717    -1.272184    -1.346229    -8.271225    -0.582157    -35.234768    63.986450    -25.870972    -45.344818    59.067612    13.298564    16.790907    3.000193    16.558506    13.426347    49.963100    54.303177    12.497166    -0.522157    -12.224637    23.585276    9.971581    -11.953648    1.927193    7.051656    5.380672    -1.010442    -2.159980    0.825299    1.060993    -4.622019    -5.734939    21.938946    0.000000    0.000000    0.000000    -5.433577    1.617126    3.298676    4.419591    6.536512    -0.936034    1.219154    -10.055453    -18.227526    0.000000    0.000000    0.000000    
-9.992876    92.378006    25.830667    0.535684    0.099865    88.932869    0.674792    -6.371990    -2.342712    -3.341153    -2.740128    -2.460233    9.450742    21.783068    0.459743    2.647677    -6.938402    1.514977    11.348738    -1.575913    -1.182713    -10.148073    -2.521102    -36.097672    61.783131    -27.005676    -44.834915    57.941601    12.760619    21.437153    3.084657    16.395390    13.436058    49.941368    54.323746    12.486263    -0.517053    -12.172828    23.450230    10.252349    -11.895401    1.965771    7.028317    5.351461    -1.009084    -2.163512    0.781944    1.057816    -4.636538    -5.692433    21.924955    0.000000    0.000000    0.000000    -5.438853    1.610646    3.231229    4.368975    6.458115    -1.034854    1.268721    -9.993709    -18.085197    0.000000    0.000000    0.000000    
-10.016241    92.387398    25.812704    0.497918    0.105293    88.953995    0.707182    -6.364816    -2.383897    -3.477642    -2.760482    -2.507054    9.663160    21.718281    0.567187    2.523260    -6.703359    1.601802    11.224185    -1.809044    -1.198592    -12.014834    -4.419343    -36.906719    59.508057    -28.472973    -44.286545    56.628147    11.660769    25.971001    3.120300    16.363134    13.395524    49.773159    54.300861    12.606422    -0.374671    -12.300781    23.361721    9.737293    -12.082111    1.717166    7.012307    5.331783    -1.020094    -2.152520    0.710927    1.041242    -4.683556    -5.639426    21.934029    0.000000    0.000000    0.000000    -5.449539    1.589274    3.228628    4.355080    6.401048    -1.066613    1.295916    -9.936496    -18.068735    0.000000    0.000000    0.000000    
-10.036257    92.396530    25.797552    0.449042    0.106138    88.962067    0.771346    -6.370106    -2.433790    -3.669607    -2.791970    -2.566195    9.982490    21.616367    0.650137    2.258298    -6.386639    1.636083    11.214705    -2.028790    -1.154687    -14.260448    -6.690398    -37.861084    56.795879    -29.943623    -44.433544    55.231121    10.478395    30.082850    3.175618    16.314331    13.411392    49.689156    54.251389    12.646114    -0.317404    -12.293537    23.170549    9.794486    -12.077262    1.823224    7.003713    5.299625    -1.011889    -2.153431    0.655529    1.039319    -4.703074    -5.591542    21.935921    0.000000    0.000000    0.000000    -5.461934    1.551381    3.257779    4.361679    6.360169    -1.067627    1.324116    -9.884815    -18.097704    0.000000    0.000000    0.000000    
-10.053259    92.404289    25.779095    0.414919    0.107867    88.962547    0.838886    -6.376824    -2.483124    -3.896200    -2.778757    -2.624423    10.289385    21.240459    0.798765    2.150573    -5.655355    1.734384    11.262668    -2.102591    -1.212755    -15.969727    -8.227602    -38.680981    55.186977    -32.117695    -43.341305    54.198132    8.653225    34.706486    3.228340    16.269558    13.458294    49.598068    54.149792    12.697829    -0.273090    -12.383275    23.002829    9.848364    -12.172175    1.862914    6.990727    5.296719    -1.036999    -2.150395    0.578112    1.036531    -4.724425    -5.549244    21.964018    0.000000    0.000000    0.000000    -5.479434    1.545091    3.368075    4.376227    6.279083    -1.165499    1.435719    -9.846539    -18.118011    0.000000    0.000000    0.000000    
-10.067699    92.413483    25.757721    0.392710    0.112623    88.952126    0.880812    -6.330203    -2.532609    -4.056793    -2.862264    -2.682746    10.514030    21.010387    0.909409    2.095437    -5.075028    1.815980    11.347497    -2.186952    -1.272948    -17.937695    -9.884162    -39.569324    53.261524    -34.416573    -42.782261    53.123230    6.029780    38.011814    3.303962    16.266914    13.511022    49.491600    54.015110    12.702474    -0.193782    -12.400022    22.868174    9.643087    -12.220003    1.720179    6.960053    5.302927    -1.053178    -2.126396    0.510218    1.080078    -4.770842    -5.505171    21.955410    0.000000    0.000000    0.000000    -5.498882    1.544578    3.385740    4.370627    6.209504    -1.210813    1.433334    -9.781743    -18.076603    0.000000    0.000000    0.000000    
